<mxfile modified="2024-01-26T05:31:01.635Z" host="app.diagrams.net" agent="Mozilla/5.0 (Macintosh; Intel Mac OS X 10_15_7) AppleWebKit/537.36 (KHTML, like Gecko) Chrome/120.0.0.0 Safari/537.36" etag="kc1Gf2VuSGz04IhkeOMq" version="22.1.21" type="device">
  <diagram id="Ht1M8jgEwFfnCIfOTk4-" name="Page-1">
    <mxGraphModel dx="1368" dy="868" grid="1" gridSize="10" guides="1" tooltips="1" connect="1" arrows="1" fold="1" page="1" pageScale="1" pageWidth="1169" pageHeight="827" math="0" shadow="0">
      <root>
        <mxCell id="0" />
        <mxCell id="1" parent="0" />
        <mxCell id="OqZ3H-oES2s2bcZF2gHH-14" style="edgeStyle=orthogonalEdgeStyle;rounded=0;orthogonalLoop=1;jettySize=auto;html=1;exitX=0.13;exitY=0.77;exitDx=0;exitDy=0;exitPerimeter=0;entryX=0;entryY=0.75;entryDx=0;entryDy=0;" edge="1" parent="1" source="OqZ3H-oES2s2bcZF2gHH-3" target="OqZ3H-oES2s2bcZF2gHH-7">
          <mxGeometry relative="1" as="geometry" />
        </mxCell>
        <mxCell id="OqZ3H-oES2s2bcZF2gHH-3" value="NASA API" style="ellipse;shape=cloud;whiteSpace=wrap;html=1;" vertex="1" parent="1">
          <mxGeometry x="200" y="600" width="120" height="80" as="geometry" />
        </mxCell>
        <mxCell id="OqZ3H-oES2s2bcZF2gHH-15" style="edgeStyle=orthogonalEdgeStyle;rounded=0;orthogonalLoop=1;jettySize=auto;html=1;entryX=0.75;entryY=1;entryDx=0;entryDy=0;exitX=0.4;exitY=0.1;exitDx=0;exitDy=0;exitPerimeter=0;" edge="1" parent="1" source="OqZ3H-oES2s2bcZF2gHH-4" target="OqZ3H-oES2s2bcZF2gHH-7">
          <mxGeometry relative="1" as="geometry" />
        </mxCell>
        <mxCell id="OqZ3H-oES2s2bcZF2gHH-4" value="ArXiv API" style="ellipse;shape=cloud;whiteSpace=wrap;html=1;" vertex="1" parent="1">
          <mxGeometry x="360" y="600" width="120" height="80" as="geometry" />
        </mxCell>
        <mxCell id="OqZ3H-oES2s2bcZF2gHH-23" style="edgeStyle=orthogonalEdgeStyle;rounded=0;orthogonalLoop=1;jettySize=auto;html=1;entryX=0.75;entryY=0;entryDx=0;entryDy=0;exitX=0.75;exitY=1;exitDx=0;exitDy=0;" edge="1" parent="1" source="OqZ3H-oES2s2bcZF2gHH-6" target="OqZ3H-oES2s2bcZF2gHH-11">
          <mxGeometry relative="1" as="geometry">
            <mxPoint x="320" y="200" as="sourcePoint" />
          </mxGeometry>
        </mxCell>
        <mxCell id="OqZ3H-oES2s2bcZF2gHH-6" value="Web Application" style="rounded=1;whiteSpace=wrap;html=1;" vertex="1" parent="1">
          <mxGeometry x="290" y="140" width="120" height="60" as="geometry" />
        </mxCell>
        <mxCell id="OqZ3H-oES2s2bcZF2gHH-10" style="edgeStyle=orthogonalEdgeStyle;rounded=0;orthogonalLoop=1;jettySize=auto;html=1;exitX=1;exitY=1;exitDx=0;exitDy=0;entryX=0.625;entryY=0.2;entryDx=0;entryDy=0;entryPerimeter=0;" edge="1" parent="1" source="OqZ3H-oES2s2bcZF2gHH-7" target="OqZ3H-oES2s2bcZF2gHH-4">
          <mxGeometry relative="1" as="geometry">
            <Array as="points">
              <mxPoint x="435" y="510" />
            </Array>
          </mxGeometry>
        </mxCell>
        <mxCell id="OqZ3H-oES2s2bcZF2gHH-7" value="Data Collection Application" style="rounded=1;whiteSpace=wrap;html=1;" vertex="1" parent="1">
          <mxGeometry x="290" y="450" width="120" height="60" as="geometry" />
        </mxCell>
        <mxCell id="OqZ3H-oES2s2bcZF2gHH-9" style="edgeStyle=orthogonalEdgeStyle;rounded=0;orthogonalLoop=1;jettySize=auto;html=1;exitX=0;exitY=1;exitDx=0;exitDy=0;entryX=0.625;entryY=0.2;entryDx=0;entryDy=0;entryPerimeter=0;" edge="1" parent="1" source="OqZ3H-oES2s2bcZF2gHH-7" target="OqZ3H-oES2s2bcZF2gHH-3">
          <mxGeometry relative="1" as="geometry">
            <mxPoint x="369" y="644" as="targetPoint" />
          </mxGeometry>
        </mxCell>
        <mxCell id="OqZ3H-oES2s2bcZF2gHH-22" style="edgeStyle=orthogonalEdgeStyle;rounded=0;orthogonalLoop=1;jettySize=auto;html=1;entryX=0.5;entryY=1;entryDx=0;entryDy=0;" edge="1" parent="1" target="OqZ3H-oES2s2bcZF2gHH-6">
          <mxGeometry relative="1" as="geometry">
            <mxPoint x="350" y="290" as="sourcePoint" />
          </mxGeometry>
        </mxCell>
        <mxCell id="OqZ3H-oES2s2bcZF2gHH-11" value="Data Analysis/Aggregator Application" style="rounded=1;whiteSpace=wrap;html=1;" vertex="1" parent="1">
          <mxGeometry x="290" y="300" width="120" height="60" as="geometry" />
        </mxCell>
        <mxCell id="OqZ3H-oES2s2bcZF2gHH-17" style="edgeStyle=orthogonalEdgeStyle;rounded=0;orthogonalLoop=1;jettySize=auto;html=1;entryX=0;entryY=0;entryDx=0;entryDy=0;" edge="1" parent="1" target="OqZ3H-oES2s2bcZF2gHH-11">
          <mxGeometry relative="1" as="geometry">
            <mxPoint x="110" y="370" as="sourcePoint" />
            <Array as="points">
              <mxPoint x="110" y="300" />
            </Array>
          </mxGeometry>
        </mxCell>
        <mxCell id="OqZ3H-oES2s2bcZF2gHH-13" style="edgeStyle=orthogonalEdgeStyle;rounded=0;orthogonalLoop=1;jettySize=auto;html=1;exitX=0.25;exitY=0;exitDx=0;exitDy=0;" edge="1" parent="1" source="OqZ3H-oES2s2bcZF2gHH-7">
          <mxGeometry relative="1" as="geometry">
            <mxPoint x="170" y="430" as="targetPoint" />
            <Array as="points">
              <mxPoint x="320" y="430" />
            </Array>
          </mxGeometry>
        </mxCell>
        <mxCell id="OqZ3H-oES2s2bcZF2gHH-16" style="edgeStyle=orthogonalEdgeStyle;rounded=0;orthogonalLoop=1;jettySize=auto;html=1;exitX=0;exitY=0.5;exitDx=0;exitDy=0;" edge="1" parent="1" source="OqZ3H-oES2s2bcZF2gHH-11" target="OqZ3H-oES2s2bcZF2gHH-20">
          <mxGeometry relative="1" as="geometry">
            <mxPoint x="210" y="375" as="targetPoint" />
          </mxGeometry>
        </mxCell>
        <mxCell id="OqZ3H-oES2s2bcZF2gHH-19" style="edgeStyle=orthogonalEdgeStyle;rounded=0;orthogonalLoop=1;jettySize=auto;html=1;exitX=1;exitY=0.3333333333333333;exitDx=0;exitDy=0;exitPerimeter=0;" edge="1" parent="1" source="OqZ3H-oES2s2bcZF2gHH-18" target="OqZ3H-oES2s2bcZF2gHH-6">
          <mxGeometry relative="1" as="geometry">
            <mxPoint x="410" y="160" as="targetPoint" />
          </mxGeometry>
        </mxCell>
        <mxCell id="OqZ3H-oES2s2bcZF2gHH-18" value="Actor" style="shape=umlActor;verticalLabelPosition=bottom;verticalAlign=top;html=1;outlineConnect=0;" vertex="1" parent="1">
          <mxGeometry x="150" y="140" width="40" height="60" as="geometry" />
        </mxCell>
        <mxCell id="OqZ3H-oES2s2bcZF2gHH-20" value="DynamoDB" style="sketch=0;outlineConnect=0;fontColor=#232F3E;gradientColor=none;fillColor=#C925D1;strokeColor=none;dashed=0;verticalLabelPosition=bottom;verticalAlign=top;align=center;html=1;fontSize=12;fontStyle=0;aspect=fixed;pointerEvents=1;shape=mxgraph.aws4.dynamodb_standard_access_table_class;" vertex="1" parent="1">
          <mxGeometry x="90" y="372" width="75" height="78" as="geometry" />
        </mxCell>
        <mxCell id="OqZ3H-oES2s2bcZF2gHH-25" style="edgeStyle=orthogonalEdgeStyle;rounded=0;orthogonalLoop=1;jettySize=auto;html=1;exitX=0.5;exitY=1;exitDx=0;exitDy=0;exitPerimeter=0;entryX=1;entryY=0.5;entryDx=0;entryDy=0;" edge="1" parent="1" source="OqZ3H-oES2s2bcZF2gHH-21" target="OqZ3H-oES2s2bcZF2gHH-7">
          <mxGeometry relative="1" as="geometry" />
        </mxCell>
        <mxCell id="OqZ3H-oES2s2bcZF2gHH-21" value="sqs" style="sketch=0;points=[[0,0,0],[0.25,0,0],[0.5,0,0],[0.75,0,0],[1,0,0],[0,1,0],[0.25,1,0],[0.5,1,0],[0.75,1,0],[1,1,0],[0,0.25,0],[0,0.5,0],[0,0.75,0],[1,0.25,0],[1,0.5,0],[1,0.75,0]];outlineConnect=0;fontColor=#232F3E;fillColor=#E7157B;strokeColor=#ffffff;dashed=0;verticalLabelPosition=bottom;verticalAlign=top;align=center;html=1;fontSize=12;fontStyle=0;aspect=fixed;shape=mxgraph.aws4.resourceIcon;resIcon=mxgraph.aws4.sqs;" vertex="1" parent="1">
          <mxGeometry x="525" y="294" width="78" height="78" as="geometry" />
        </mxCell>
        <mxCell id="OqZ3H-oES2s2bcZF2gHH-24" style="edgeStyle=orthogonalEdgeStyle;rounded=0;orthogonalLoop=1;jettySize=auto;html=1;exitX=1;exitY=0.5;exitDx=0;exitDy=0;entryX=0.5;entryY=0;entryDx=0;entryDy=0;entryPerimeter=0;" edge="1" parent="1" source="OqZ3H-oES2s2bcZF2gHH-6" target="OqZ3H-oES2s2bcZF2gHH-21">
          <mxGeometry relative="1" as="geometry" />
        </mxCell>
      </root>
    </mxGraphModel>
  </diagram>
</mxfile>
